<svg width="124" height="124" viewBox="0 0 124 124" fill="none" xmlns="http://www.w3.org/2000/svg">
<path d="M56.4493 80.1039C56.4493 79.3704 56.5941 78.6437 56.8763 77.9667C57.1591 77.2891 57.5722 76.6746 58.0935 76.1583C58.6148 75.6419 59.2333 75.2337 59.9128 74.9575C60.5929 74.6812 61.32 74.5423 62.0541 74.5487C63.1363 74.5686 64.1889 74.9064 65.0802 75.5209C65.971 76.1355 66.6619 76.9995 67.0647 78.0039C67.4679 79.0088 67.5651 80.1099 67.3459 81.1699C67.1262 82.2298 66.5989 83.2015 65.8301 83.9638C65.0613 84.7257 64.0852 85.244 63.0233 85.4543C61.9613 85.6646 60.8607 85.557 59.8598 85.1448C58.8583 84.7331 58.0013 84.0353 57.3947 83.1385C56.788 82.2422 56.4592 81.1867 56.4493 80.1039ZM58.2344 66.5631L57.54 40.672C57.474 40.0496 57.54 39.4203 57.7334 38.825C57.9264 38.2297 58.2423 37.6816 58.6609 37.2163C59.0796 36.751 59.5914 36.379 60.1628 36.1243C60.7347 35.8697 61.3537 35.738 61.9792 35.738C62.6051 35.738 63.2241 35.8697 63.796 36.1243C64.3674 36.379 64.8793 36.751 65.2979 37.2163C65.7165 37.6816 66.0325 38.2297 66.2254 38.825C66.4189 39.4203 66.4848 40.0496 66.4189 40.672L65.7741 66.5631C65.7741 67.5626 65.3773 68.5219 64.67 69.2287C63.9632 69.9355 63.0039 70.3328 62.0045 70.3328C61.0045 70.3328 60.0458 69.9355 59.339 69.2287C58.6322 68.5219 58.2344 67.5626 58.2344 66.5631Z" fill="#8C73CB"/>
<path d="M62 106.64C87.3387 106.64 107.88 86.0987 107.88 60.76C107.88 35.4212 87.3387 14.88 62 14.88C36.6612 14.88 16.12 35.4212 16.12 60.76C16.12 86.0987 36.6612 106.64 62 106.64Z" stroke="#8C73CB" stroke-width="4" stroke-linecap="round" stroke-linejoin="round"/>
</svg>
